<svg xmlns="http://www.w3.org/2000/svg" xmlns:xlink="http://www.w3.org/1999/xlink" version="1.1" x="0px" y="0px" viewBox="0 0 100 125" style="enable-background:new 0 0 100 100;" xml:space="preserve"><g><path d="M50.9,3h-1.8c-9.4,0-17,7.6-17,17v36c0,9.4,7.6,17,17,17h1.8c9.4,0,17-7.6,17-17V20C67.9,10.6,60.3,3,50.9,3z M60,56   c0,5-4.1,9-9.1,9h-1.8c-5,0-9.1-4-9.1-9V20c0-5,4.1-9,9.1-9h1.8c5,0,9.1,4,9.1,9V56z"/><path d="M78.9,55.1V29c0-2.2-1.8-4-4-4S71,26.8,71,29v26c0,11.5-9.5,21-21,21s-21-9.5-21-21V29c0-2.2-1.7-4-3.9-4s-4,1.8-4,4v26.1   c0,12.6,8.6,23,19.9,26.9v7H30c-2.2,0-4,1.8-4,4s1.8,4,4,4h14.5h11H70c2.2,0,4-1.8,4-4s-1.8-4-4-4H59v-6   C70.3,79.1,78.9,67.7,78.9,55.1z M52,84v5h-4v-5H52z"/><path d="M54,24h-8c-2.2,0-3.9,1.8-3.9,4s1.8,4,4,4h7.8c2.2,0,4-1.8,4-4S56.2,24,54,24z"/><path d="M53.9,35.1h-7.8c-2.2,0-4,1.8-4,4S43.8,43,46,43h8c2.2,0,3.9-1.7,3.9-3.9S56.1,35.1,53.9,35.1z"/><path d="M53.9,46.2h-7.8c-2.2,0-4,1.8-4,4S43.8,54,46,54h8c2.2,0,3.9-1.6,3.9-3.8S56.1,46.2,53.9,46.2z"/></g><text x="0" y="115" fill="#000000" font-size="5px" font-weight="bold" font-family="'Helvetica Neue', Helvetica, Arial-Unicode, Arial, Sans-serif">Created by Icon Depot</text><text x="0" y="120" fill="#000000" font-size="5px" font-weight="bold" font-family="'Helvetica Neue', Helvetica, Arial-Unicode, Arial, Sans-serif">from the Noun Project</text></svg>